<svg xml:space="preserve" style="enable-background:new 0 0 1024 1024;" viewBox="0 0 1024 1024" y="0px" x="0px" xmlns:xlink="http://www.w3.org/1999/xlink" xmlns="http://www.w3.org/2000/svg" id="图层_1" version="1.1">
<style type="text/css">
	.st0{fill:#F2F2F2;}
	.st1{fill:#FFFFFF;}
	.st2{fill:#CCCCCC;}
	.st3{fill:#C5A47A;}
	.st4{fill:#FFB8B8;}
	.st5{fill:#2F2E41;}
	.st6{fill:#3F3D56;}
</style>
    <path d="M743.1,766.2c-11.1-9.4-17.9-24.3-16.1-38.8s12.8-27.8,27-30.9s30.5,5.4,34.8,19.4c2.4-26.8,5.1-54.8,19.4-77.7
	c12.9-20.7,35.3-35.5,59.6-38.2s49.8,7.4,64.9,26.5s18.8,47,8.2,69c-7.8,16.2-22.2,28.2-37.3,38.1c-48.7,31.4-107.1,44.2-164.5,36
	L743.1,766.2z" class="st0"></path>
    <path d="M908.7,608c-20,16.3-38.4,34.5-54.8,54.4c-25.7,31-46.6,65.8-61.8,103.2c-1.1,2.7,3.3,3.9,4.4,1.2
	c24.9-60.7,64.5-114.2,115.4-155.6C914.2,609.4,911,606.2,908.7,608z" class="st1"></path>
    <path d="M357.1,763.6c15.3-12.9,24.6-33.3,22.2-53.2s-17.5-38.2-37.1-42.4s-41.9,7.5-47.8,26.6
	c-3.3-36.9-7-75.3-26.6-106.7c-17.8-28.4-48.5-48.8-81.8-52.4s-68.4,10.1-89.2,36.4c-20.8,26.3-25.9,64.5-11.3,94.7
	c10.7,22.2,30.5,38.8,51.2,52.3c66,43,147.9,60.9,225.9,49.4" class="st0"></path>
    <path d="M129.6,546.4c27.5,22.4,52.7,47.4,75.3,74.8c22.6,27.3,42.5,56.7,59.4,87.9c9.5,17.5,17.9,35.4,25.4,53.8
	c1.5,3.7-4.5,5.4-6.1,1.7c-13.3-32.4-29.7-63.5-49-92.7c-19.2-29.1-41.2-56.3-65.7-81.2c-13.8-14.1-28.5-27.4-43.8-39.8
	C122,548.3,126.5,543.8,129.6,546.4L129.6,546.4z" class="st1"></path>
    <path d="M701.5,770.9h-365V396.4c0-79.7,64.8-144.5,144.5-144.5h76c79.7,0,144.5,64.8,144.5,144.5V770.9z" class="st0"></path>
    <path d="M625.5,770.9h-289V396.4c-0.1-30.5,9.6-60.3,27.6-84.9c0.7-0.9,1.3-1.8,2-2.7c8.7-11.4,19.1-21.5,30.8-29.9
	c0.7-0.5,1.3-1,2-1.4c9.8-6.8,20.3-12.3,31.5-16.5c0.7-0.3,1.3-0.5,2-0.7c10.1-3.6,20.5-6.1,31.1-7.3c0.7-0.1,1.3-0.2,2-0.2
	c10.3-1.1,20.8-1.1,31.1,0c0.7,0.1,1.3,0.1,2,0.2c10.6,1.3,21,3.7,31.1,7.3c0.7,0.2,1.3,0.5,2,0.7c11,4.1,21.4,9.6,31.1,16.2
	c0.7,0.5,1.3,0.9,2,1.4c6.5,4.7,12.7,9.9,18.4,15.6c4.6,4.6,8.8,9.4,12.7,14.6c0.7,0.9,1.3,1.8,2,2.7c18,24.7,27.7,54.4,27.6,84.9
	V770.9z" class="st2"></path>
    <circle r="16" cy="587.4" cx="602" class="st3"></circle>
    <polygon points="671.6,759.7 659.3,759.7 653.5,712.4 671.6,712.4" class="st4"></polygon>
    <path d="M650.6,756.2h23.6l0,0v14.9l0,0h-38.5l0,0l0,0C635.7,762.9,642.4,756.2,650.6,756.2L650.6,756.2z" class="st5"></path>
    <polygon points="732.6,759.7 720.3,759.7 714.5,712.4 732.6,712.4" class="st4"></polygon>
    <path d="M711.6,756.2h23.6l0,0v14.9l0,0h-38.5l0,0l0,0C696.7,762.9,703.4,756.2,711.6,756.2L711.6,756.2z" class="st5"></path>
    <path d="M610.1,590.6c-3.3-4.9-2.1-11.6,2.9-14.9c0.5-0.4,1.1-0.7,1.7-0.9l41.7-114.9l20.5,11.2l-47.6,109.8
	c2.1,5.6-0.8,11.8-6.4,13.9C618.1,596.5,612.9,594.7,610.1,590.6z" class="st4"></path>
    <path d="M726.3,612.2c-5.1-3-6.9-9.5-4-14.7c0.3-0.5,0.7-1.1,1.1-1.6l-12.9-121.5l23.3,1.1l5.4,119.5
	c4.3,4.1,4.5,11,0.3,15.3C736.1,613.9,730.7,614.7,726.3,612.2L726.3,612.2z" class="st4"></path>
    <circle r="24.6" cy="414.1" cx="689.1" class="st4"></circle>
    <path d="M726.2,584.5h-74l0.1-0.6c0.1-0.9,13.2-86.4,3.6-114.4c-2-5.7,0.6-12,6.1-14.6h0c13.8-6.5,40.2-14.5,62.5,4.9
	c6.7,5.9,10.2,14.5,9.5,23.4L726.2,584.5z" class="st3"></path>
    <path d="M666.4,510.2l-33.3-6.8l15.6-37c1.9-7.5,9.6-12,17.1-10c7.5,1.9,11.9,9.5,10,17L666.4,510.2z" class="st3"></path>
    <path d="M709.1,522.7l-2-45.9c-1.5-8.6,3.4-16.8,11-18.1c7.6-1.3,15,4.7,16.6,13.4l7.5,42.9L709.1,522.7z" class="st3"></path>
    <path d="M723.7,579c11.9,45.4,13.2,103.1,10,166l-16-2l-29-120l-16,122l-18-1c-5.4-66-10.6-122.7-2-160L723.7,579z" class="st5"></path>
    <path d="M705.3,433c-4.6,4.9-13.1,2.3-13.7-4.4c0-0.5,0-1,0-1.6c0.3-3,2-5.6,1.6-8.8c-0.1-0.8-0.4-1.5-0.8-2.1
	c-3.7-4.9-12.2,2.2-15.7-2.2c-2.1-2.7,0.4-7-1.3-10c-2.1-4-8.5-2-12.5-4.2c-4.4-2.4-4.2-9.2-1.2-13.4c3.6-5,9.8-7.7,15.9-8.1
	s12.3,1.3,18,3.5c6.5,2.5,13,6.1,17,11.8c4.9,7,5.3,16.3,2.9,24.5C714.1,423,709,429,705.3,433z" class="st5"></path>
    <path d="M917,771.6H178.7c-0.7,0-1.2-0.5-1.2-1.2c0-0.7,0.5-1.2,1.2-1.2H917c0.7,0,1.2,0.5,1.2,1.2
	C918.2,771,917.6,771.6,917,771.6z" class="st6"></path>
    <path d="M546,662.4H416c-3.6,0-6.5-2.9-6.5-6.4V365.8c0-3.6,2.9-6.4,6.5-6.4h130c3.6,0,6.5,2.9,6.5,6.4V656
	C552.5,659.6,549.6,662.4,546,662.4z" class="st1"></path>
    <rect height="2" width="143" class="st2" y="453.3" x="409.5"></rect>
    <rect height="2" width="143" class="st2" y="567.4" x="410"></rect>
    <rect height="304" width="2" class="st2" y="359.4" x="454.5"></rect>
    <rect height="304" width="2" class="st2" y="359.4" x="504.5"></rect>
</svg>
