<svg t="1686799723303" class="icon" viewBox="0 0 1024 1024" version="1.1" xmlns="http://www.w3.org/2000/svg" p-id="880" width="200" height="200"><path d="M419.910621 1006.344828c-27.294897 0-48.375172-0.176552-68.290207-0.600276s-39.265103-2.153931-58.368-3.848828c-13.029517-1.165241-26.482759-2.330483-39.724138-3.072a274.891034 274.891034 0 0 1-88.911448-21.186207 174.291862 174.291862 0 0 1-92.442483-81.884689 205.329655 205.329655 0 0 1-21.186207-95.867587 532.51531 532.51531 0 0 1 38.276414-191.770482 811.113931 811.113931 0 0 1 77.682758-151.834483 597.768828 597.768828 0 0 1 138.628414-154.341517 435.341241 435.341241 0 0 1 52.647724-35.310345 60.733793 60.733793 0 0 1-29.060414-33.933242c-7.062069-21.186207-13.806345-43.04331-20.409379-64.052965V168.430345l-6.320552-20.126897a3099.824552 3099.824552 0 0 0-6.21462-19.350069l-0.741517-2.330482v-0.247173a1055.77931 1055.77931 0 0 1-15.607173-50.988138 43.784828 43.784828 0 0 1 7.768276-38.241103A45.373793 45.373793 0 0 1 323.901793 19.244138h3.142621a90.041379 90.041379 0 0 1 55.472552 22.633931c7.415172 6.673655 14.618483 13.806345 21.609931 20.691862l0.247172 0.247172c6.073379 6.002759 12.958897 12.817655 19.809103 19.067587a30.084414 30.084414 0 0 0 15.28938 7.803586 33.897931 33.897931 0 0 0 3.531034 0.176552c12.288 0 18.996966-7.521103 19.456-21.786483a50.705655 50.705655 0 0 1 34.78069-48.09269 45.903448 45.903448 0 0 1 14.724414-2.507034h0.670896a50.176 50.176 0 0 1 49.434483 48.16331 21.186207 21.186207 0 0 0 12.146759 22.633931 23.234207 23.234207 0 0 0 9.533793 2.048 24.152276 24.152276 0 0 0 17.196138-7.344552l7.874207-8.121379 0.176551-0.176552c10.593103-10.910897 21.46869-22.174897 32.873931-32.485517a81.778759 81.778759 0 0 1 55.790345-22.810483 81.496276 81.496276 0 0 1 8.297931 0.423724 44.738207 44.738207 0 0 1 32.979862 19.703173 45.267862 45.267862 0 0 1 5.331862 38.523586 8395.74069 8395.74069 0 0 1-38.170482 119.77269l-0.247173 0.812138-5.826207 17.972965-1.165241 3.531035-0.423724 1.341793a127.435034 127.435034 0 0 1-9.957518 25.176276 49.646345 49.646345 0 0 1-21.715862 20.444689 480.22069 480.22069 0 0 1 52.118069 34.321655 564.577103 564.577103 0 0 1 138.028138 151.410759 826.827034 826.827034 0 0 1 48.622345 85.556966 743.035586 743.035586 0 0 1 40.99531 99.963586 506.067862 506.067862 0 0 1 25.56469 128.847448l0.211862 5.331862c0.388414 9.321931 0.847448 19.879724 0.847448 30.013793v1.553655a201.268966 201.268966 0 0 1-5.049379 48.163311 168.147862 168.147862 0 0 1-69.102345 103.988965 273.725793 273.725793 0 0 1-117.618758 41.701518 1032.792276 1032.792276 0 0 1-145.302069 7.944827h-166.912q-24.681931 0.459034-49.257931 0.459035z m-27.294897-269.453242v32.626759h83.049931v77.682758h38.064552v-77.682758h83.049931v-32.626759h-83.049931v-49.434483h83.049931v-32.626758h-79.095172l111.227586-182.413242h-43.99669l-88.982069 152.258207h-2.966069l-88.982069-152.258207H359.953655l111.757242 182.413242h-79.095173v32.626758h83.049931v49.434483z" p-id="881"></path></svg>